<svg width="20" height="20" viewBox="0 0 20 20" fill="none" xmlns="http://www.w3.org/2000/svg">
<g clip-path="url(#clip0)">
<path d="M11.7688 10.0008L19.6335 2.13605C20.1222 1.64784 20.1222 0.85569 19.6335 0.367479C19.1449 -0.12115 18.3536 -0.12115 17.865 0.367479L10.0002 8.23223L2.13504 0.367479C1.64641 -0.12115 0.8551 -0.12115 0.366471 0.367479C-0.122157 0.85569 -0.122157 1.64784 0.366471 2.13605L8.23164 10.0008L0.366471 17.8655C-0.122157 18.3538 -0.122157 19.1459 0.366471 19.6341C0.610786 19.878 0.930979 20.0002 1.25076 20.0002C1.57053 20.0002 1.89073 19.878 2.13504 19.6337L10.0002 11.7689L17.865 19.6337C18.1093 19.878 18.4295 20.0002 18.7492 20.0002C19.069 20.0002 19.3892 19.878 19.6335 19.6337C20.1222 19.1455 20.1222 18.3533 19.6335 17.8651L11.7688 10.0008Z" fill="#FFFCF7"/>
</g>
<defs>
<clipPath id="clip0">
<rect width="20" height="20" fill="white"/>
</clipPath>
</defs>
</svg>
